<mxfile host="app.diagrams.net" modified="2023-07-25T10:05:37.893Z" agent="Mozilla/5.0 (Windows NT 10.0; Win64; x64) AppleWebKit/537.36 (KHTML, like Gecko) Chrome/114.0.0.0 Safari/537.36 OPR/100.0.0.0" etag="1rQXLpFx7rVn2wKcN0YP" version="21.6.5" type="device">
  <diagram name="Seite-1" id="mgTGHhtudh_ZVd_dp6bq">
    <mxGraphModel dx="668" dy="380" grid="1" gridSize="10" guides="1" tooltips="1" connect="1" arrows="1" fold="1" page="1" pageScale="1" pageWidth="827" pageHeight="1169" math="0" shadow="0">
      <root>
        <mxCell id="0" />
        <mxCell id="1" parent="0" />
        <mxCell id="yvjDSjV-OAR_UCFlR2id-7" value="0" style="text;html=1;strokeColor=none;fillColor=none;align=center;verticalAlign=middle;whiteSpace=wrap;rounded=0;" parent="1" vertex="1">
          <mxGeometry x="210" y="270" width="30" height="30" as="geometry" />
        </mxCell>
        <mxCell id="yvjDSjV-OAR_UCFlR2id-8" value="1" style="text;html=1;strokeColor=none;fillColor=none;align=center;verticalAlign=middle;whiteSpace=wrap;rounded=0;" parent="1" vertex="1">
          <mxGeometry x="240" y="270" width="30" height="30" as="geometry" />
        </mxCell>
        <mxCell id="yvjDSjV-OAR_UCFlR2id-9" value="2" style="text;html=1;strokeColor=none;fillColor=none;align=center;verticalAlign=middle;whiteSpace=wrap;rounded=0;" parent="1" vertex="1">
          <mxGeometry x="270" y="270" width="30" height="30" as="geometry" />
        </mxCell>
        <mxCell id="yvjDSjV-OAR_UCFlR2id-10" value="3" style="text;html=1;strokeColor=none;fillColor=none;align=center;verticalAlign=middle;whiteSpace=wrap;rounded=0;" parent="1" vertex="1">
          <mxGeometry x="300" y="270" width="30" height="30" as="geometry" />
        </mxCell>
        <mxCell id="yvjDSjV-OAR_UCFlR2id-11" value="4" style="text;html=1;strokeColor=none;fillColor=none;align=center;verticalAlign=middle;whiteSpace=wrap;rounded=0;" parent="1" vertex="1">
          <mxGeometry x="330" y="270" width="30" height="30" as="geometry" />
        </mxCell>
        <mxCell id="yvjDSjV-OAR_UCFlR2id-13" value="x" style="text;html=1;strokeColor=none;fillColor=none;align=center;verticalAlign=middle;whiteSpace=wrap;rounded=0;" parent="1" vertex="1">
          <mxGeometry x="255" y="300" width="60" height="30" as="geometry" />
        </mxCell>
        <mxCell id="yvjDSjV-OAR_UCFlR2id-15" value="" style="shape=curlyBracket;whiteSpace=wrap;html=1;rounded=1;flipH=1;labelPosition=right;verticalLabelPosition=middle;align=left;verticalAlign=middle;rotation=90;" parent="1" vertex="1">
          <mxGeometry x="275" y="225" width="20" height="150" as="geometry" />
        </mxCell>
        <mxCell id="yvjDSjV-OAR_UCFlR2id-16" value="" style="shape=curlyBracket;whiteSpace=wrap;html=1;rounded=1;labelPosition=left;verticalLabelPosition=middle;align=right;verticalAlign=middle;" parent="1" vertex="1">
          <mxGeometry x="170" y="120" width="20" height="150" as="geometry" />
        </mxCell>
        <mxCell id="yvjDSjV-OAR_UCFlR2id-17" value="0" style="text;html=1;strokeColor=none;fillColor=none;align=center;verticalAlign=middle;whiteSpace=wrap;rounded=0;" parent="1" vertex="1">
          <mxGeometry x="180" y="240" width="30" height="30" as="geometry" />
        </mxCell>
        <mxCell id="yvjDSjV-OAR_UCFlR2id-18" value="1" style="text;html=1;strokeColor=none;fillColor=none;align=center;verticalAlign=middle;whiteSpace=wrap;rounded=0;" parent="1" vertex="1">
          <mxGeometry x="180" y="210" width="30" height="30" as="geometry" />
        </mxCell>
        <mxCell id="yvjDSjV-OAR_UCFlR2id-19" value="2" style="text;html=1;strokeColor=none;fillColor=none;align=center;verticalAlign=middle;whiteSpace=wrap;rounded=0;" parent="1" vertex="1">
          <mxGeometry x="180" y="180" width="30" height="30" as="geometry" />
        </mxCell>
        <mxCell id="yvjDSjV-OAR_UCFlR2id-20" value="3" style="text;html=1;strokeColor=none;fillColor=none;align=center;verticalAlign=middle;whiteSpace=wrap;rounded=0;" parent="1" vertex="1">
          <mxGeometry x="180" y="150" width="30" height="30" as="geometry" />
        </mxCell>
        <mxCell id="yvjDSjV-OAR_UCFlR2id-21" value="4" style="text;html=1;strokeColor=none;fillColor=none;align=center;verticalAlign=middle;whiteSpace=wrap;rounded=0;" parent="1" vertex="1">
          <mxGeometry x="180" y="120" width="30" height="30" as="geometry" />
        </mxCell>
        <mxCell id="yvjDSjV-OAR_UCFlR2id-42" value="y" style="text;html=1;strokeColor=none;fillColor=none;align=center;verticalAlign=middle;whiteSpace=wrap;rounded=0;" parent="1" vertex="1">
          <mxGeometry x="130" y="180" width="60" height="30" as="geometry" />
        </mxCell>
        <mxCell id="EK3I1rne3cS6E6rQjDy5-1" value="" style="rounded=0;whiteSpace=wrap;html=1;fillColor=#FFCCCC;" vertex="1" parent="1">
          <mxGeometry x="210" y="240" width="30" height="30" as="geometry" />
        </mxCell>
        <mxCell id="EK3I1rne3cS6E6rQjDy5-2" value="" style="rounded=0;whiteSpace=wrap;html=1;fillColor=#FF9999;" vertex="1" parent="1">
          <mxGeometry x="240" y="240" width="30" height="30" as="geometry" />
        </mxCell>
        <mxCell id="EK3I1rne3cS6E6rQjDy5-3" value="" style="rounded=0;whiteSpace=wrap;html=1;fillColor=#FF6666;" vertex="1" parent="1">
          <mxGeometry x="270" y="240" width="30" height="30" as="geometry" />
        </mxCell>
        <mxCell id="EK3I1rne3cS6E6rQjDy5-4" value="" style="rounded=0;whiteSpace=wrap;html=1;fillColor=#FF3333;" vertex="1" parent="1">
          <mxGeometry x="300" y="240" width="30" height="30" as="geometry" />
        </mxCell>
        <mxCell id="EK3I1rne3cS6E6rQjDy5-5" value="" style="rounded=0;whiteSpace=wrap;html=1;fillColor=#CC0000;" vertex="1" parent="1">
          <mxGeometry x="330" y="240" width="30" height="30" as="geometry" />
        </mxCell>
        <mxCell id="EK3I1rne3cS6E6rQjDy5-6" value="" style="rounded=0;whiteSpace=wrap;html=1;fillColor=#FFE6CC;" vertex="1" parent="1">
          <mxGeometry x="210" y="210" width="30" height="30" as="geometry" />
        </mxCell>
        <mxCell id="EK3I1rne3cS6E6rQjDy5-7" value="" style="rounded=0;whiteSpace=wrap;html=1;fillColor=#FFCC99;" vertex="1" parent="1">
          <mxGeometry x="240" y="210" width="30" height="30" as="geometry" />
        </mxCell>
        <mxCell id="EK3I1rne3cS6E6rQjDy5-8" value="" style="rounded=0;whiteSpace=wrap;html=1;fillColor=#FFB366;" vertex="1" parent="1">
          <mxGeometry x="270" y="210" width="30" height="30" as="geometry" />
        </mxCell>
        <mxCell id="EK3I1rne3cS6E6rQjDy5-9" value="" style="rounded=0;whiteSpace=wrap;html=1;fillColor=#FF9933;" vertex="1" parent="1">
          <mxGeometry x="300" y="210" width="30" height="30" as="geometry" />
        </mxCell>
        <mxCell id="EK3I1rne3cS6E6rQjDy5-10" value="" style="rounded=0;whiteSpace=wrap;html=1;fillColor=#CC6600;" vertex="1" parent="1">
          <mxGeometry x="330" y="210" width="30" height="30" as="geometry" />
        </mxCell>
        <mxCell id="EK3I1rne3cS6E6rQjDy5-11" value="" style="rounded=0;whiteSpace=wrap;html=1;fillColor=#FFFFCC;" vertex="1" parent="1">
          <mxGeometry x="210" y="180" width="30" height="30" as="geometry" />
        </mxCell>
        <mxCell id="EK3I1rne3cS6E6rQjDy5-12" value="" style="rounded=0;whiteSpace=wrap;html=1;fillColor=#FFFF99;" vertex="1" parent="1">
          <mxGeometry x="240" y="180" width="30" height="30" as="geometry" />
        </mxCell>
        <mxCell id="EK3I1rne3cS6E6rQjDy5-13" value="" style="rounded=0;whiteSpace=wrap;html=1;fillColor=#FFFF66;" vertex="1" parent="1">
          <mxGeometry x="270" y="180" width="30" height="30" as="geometry" />
        </mxCell>
        <mxCell id="EK3I1rne3cS6E6rQjDy5-14" value="" style="rounded=0;whiteSpace=wrap;html=1;fillColor=#FFFF33;" vertex="1" parent="1">
          <mxGeometry x="300" y="180" width="30" height="30" as="geometry" />
        </mxCell>
        <mxCell id="EK3I1rne3cS6E6rQjDy5-15" value="" style="rounded=0;whiteSpace=wrap;html=1;fillColor=#CCCC00;" vertex="1" parent="1">
          <mxGeometry x="330" y="180" width="30" height="30" as="geometry" />
        </mxCell>
        <mxCell id="EK3I1rne3cS6E6rQjDy5-16" value="" style="rounded=0;whiteSpace=wrap;html=1;fillColor=#E6FFCC;" vertex="1" parent="1">
          <mxGeometry x="210" y="150" width="30" height="30" as="geometry" />
        </mxCell>
        <mxCell id="EK3I1rne3cS6E6rQjDy5-17" value="" style="rounded=0;whiteSpace=wrap;html=1;fillColor=#CCFF99;" vertex="1" parent="1">
          <mxGeometry x="240" y="150" width="30" height="30" as="geometry" />
        </mxCell>
        <mxCell id="EK3I1rne3cS6E6rQjDy5-18" value="" style="rounded=0;whiteSpace=wrap;html=1;fillColor=#B3FF66;" vertex="1" parent="1">
          <mxGeometry x="270" y="150" width="30" height="30" as="geometry" />
        </mxCell>
        <mxCell id="EK3I1rne3cS6E6rQjDy5-19" value="" style="rounded=0;whiteSpace=wrap;html=1;fillColor=#99FF33;" vertex="1" parent="1">
          <mxGeometry x="300" y="150" width="30" height="30" as="geometry" />
        </mxCell>
        <mxCell id="EK3I1rne3cS6E6rQjDy5-20" value="" style="rounded=0;whiteSpace=wrap;html=1;fillColor=#66CC00;" vertex="1" parent="1">
          <mxGeometry x="330" y="150" width="30" height="30" as="geometry" />
        </mxCell>
        <mxCell id="EK3I1rne3cS6E6rQjDy5-21" value="" style="rounded=0;whiteSpace=wrap;html=1;fillColor=#CCFFFF;" vertex="1" parent="1">
          <mxGeometry x="210" y="120" width="30" height="30" as="geometry" />
        </mxCell>
        <mxCell id="EK3I1rne3cS6E6rQjDy5-22" value="" style="rounded=0;whiteSpace=wrap;html=1;fillColor=#99FFFF;" vertex="1" parent="1">
          <mxGeometry x="240" y="120" width="30" height="30" as="geometry" />
        </mxCell>
        <mxCell id="EK3I1rne3cS6E6rQjDy5-23" value="" style="rounded=0;whiteSpace=wrap;html=1;fillColor=#66FFFF;" vertex="1" parent="1">
          <mxGeometry x="270" y="120" width="30" height="30" as="geometry" />
        </mxCell>
        <mxCell id="EK3I1rne3cS6E6rQjDy5-24" value="" style="rounded=0;whiteSpace=wrap;html=1;fillColor=#33FFFF;" vertex="1" parent="1">
          <mxGeometry x="300" y="120" width="30" height="30" as="geometry" />
        </mxCell>
        <mxCell id="EK3I1rne3cS6E6rQjDy5-25" value="" style="rounded=0;whiteSpace=wrap;html=1;fillColor=#00CCCC;" vertex="1" parent="1">
          <mxGeometry x="330" y="120" width="30" height="30" as="geometry" />
        </mxCell>
        <mxCell id="EK3I1rne3cS6E6rQjDy5-51" value="" style="rounded=0;whiteSpace=wrap;html=1;fillColor=#FFCCCC;" vertex="1" parent="1">
          <mxGeometry x="480" y="240" width="30" height="30" as="geometry" />
        </mxCell>
        <mxCell id="EK3I1rne3cS6E6rQjDy5-52" value="" style="rounded=0;whiteSpace=wrap;html=1;fillColor=#FF9999;" vertex="1" parent="1">
          <mxGeometry x="480" y="180" width="30" height="30" as="geometry" />
        </mxCell>
        <mxCell id="EK3I1rne3cS6E6rQjDy5-53" value="" style="rounded=0;whiteSpace=wrap;html=1;fillColor=#FF6666;" vertex="1" parent="1">
          <mxGeometry x="480" y="120" width="30" height="30" as="geometry" />
        </mxCell>
        <mxCell id="EK3I1rne3cS6E6rQjDy5-54" value="" style="rounded=0;whiteSpace=wrap;html=1;fillColor=#FF3333;" vertex="1" parent="1">
          <mxGeometry x="480" y="210" width="30" height="30" as="geometry" />
        </mxCell>
        <mxCell id="EK3I1rne3cS6E6rQjDy5-55" value="" style="rounded=0;whiteSpace=wrap;html=1;fillColor=#CC0000;" vertex="1" parent="1">
          <mxGeometry x="480" y="150" width="30" height="30" as="geometry" />
        </mxCell>
        <mxCell id="EK3I1rne3cS6E6rQjDy5-56" value="" style="rounded=0;whiteSpace=wrap;html=1;fillColor=#FFE6CC;" vertex="1" parent="1">
          <mxGeometry x="510" y="150" width="30" height="30" as="geometry" />
        </mxCell>
        <mxCell id="EK3I1rne3cS6E6rQjDy5-57" value="" style="rounded=0;whiteSpace=wrap;html=1;fillColor=#FFCC99;" vertex="1" parent="1">
          <mxGeometry x="510" y="240" width="30" height="30" as="geometry" />
        </mxCell>
        <mxCell id="EK3I1rne3cS6E6rQjDy5-58" value="" style="rounded=0;whiteSpace=wrap;html=1;fillColor=#FFB366;" vertex="1" parent="1">
          <mxGeometry x="510" y="180" width="30" height="30" as="geometry" />
        </mxCell>
        <mxCell id="EK3I1rne3cS6E6rQjDy5-59" value="" style="rounded=0;whiteSpace=wrap;html=1;fillColor=#FF9933;" vertex="1" parent="1">
          <mxGeometry x="510" y="120" width="30" height="30" as="geometry" />
        </mxCell>
        <mxCell id="EK3I1rne3cS6E6rQjDy5-60" value="" style="rounded=0;whiteSpace=wrap;html=1;fillColor=#CC6600;" vertex="1" parent="1">
          <mxGeometry x="510" y="210" width="30" height="30" as="geometry" />
        </mxCell>
        <mxCell id="EK3I1rne3cS6E6rQjDy5-61" value="" style="rounded=0;whiteSpace=wrap;html=1;fillColor=#FFFFCC;" vertex="1" parent="1">
          <mxGeometry x="540" y="210" width="30" height="30" as="geometry" />
        </mxCell>
        <mxCell id="EK3I1rne3cS6E6rQjDy5-62" value="" style="rounded=0;whiteSpace=wrap;html=1;fillColor=#FFFF99;" vertex="1" parent="1">
          <mxGeometry x="540" y="150" width="30" height="30" as="geometry" />
        </mxCell>
        <mxCell id="EK3I1rne3cS6E6rQjDy5-63" value="" style="rounded=0;whiteSpace=wrap;html=1;fillColor=#FFFF66;" vertex="1" parent="1">
          <mxGeometry x="540" y="240" width="30" height="30" as="geometry" />
        </mxCell>
        <mxCell id="EK3I1rne3cS6E6rQjDy5-64" value="" style="rounded=0;whiteSpace=wrap;html=1;fillColor=#FFFF33;" vertex="1" parent="1">
          <mxGeometry x="540" y="180" width="30" height="30" as="geometry" />
        </mxCell>
        <mxCell id="EK3I1rne3cS6E6rQjDy5-65" value="" style="rounded=0;whiteSpace=wrap;html=1;fillColor=#CCCC00;" vertex="1" parent="1">
          <mxGeometry x="540" y="120" width="30" height="30" as="geometry" />
        </mxCell>
        <mxCell id="EK3I1rne3cS6E6rQjDy5-66" value="" style="rounded=0;whiteSpace=wrap;html=1;fillColor=#E6FFCC;" vertex="1" parent="1">
          <mxGeometry x="570" y="120" width="30" height="30" as="geometry" />
        </mxCell>
        <mxCell id="EK3I1rne3cS6E6rQjDy5-67" value="" style="rounded=0;whiteSpace=wrap;html=1;fillColor=#CCFF99;" vertex="1" parent="1">
          <mxGeometry x="570" y="210" width="30" height="30" as="geometry" />
        </mxCell>
        <mxCell id="EK3I1rne3cS6E6rQjDy5-68" value="" style="rounded=0;whiteSpace=wrap;html=1;fillColor=#B3FF66;" vertex="1" parent="1">
          <mxGeometry x="570" y="150" width="30" height="30" as="geometry" />
        </mxCell>
        <mxCell id="EK3I1rne3cS6E6rQjDy5-69" value="" style="rounded=0;whiteSpace=wrap;html=1;fillColor=#99FF33;" vertex="1" parent="1">
          <mxGeometry x="570" y="240" width="30" height="30" as="geometry" />
        </mxCell>
        <mxCell id="EK3I1rne3cS6E6rQjDy5-70" value="" style="rounded=0;whiteSpace=wrap;html=1;fillColor=#66CC00;" vertex="1" parent="1">
          <mxGeometry x="570" y="180" width="30" height="30" as="geometry" />
        </mxCell>
        <mxCell id="EK3I1rne3cS6E6rQjDy5-71" value="" style="rounded=0;whiteSpace=wrap;html=1;fillColor=#CCFFFF;" vertex="1" parent="1">
          <mxGeometry x="600" y="180" width="30" height="30" as="geometry" />
        </mxCell>
        <mxCell id="EK3I1rne3cS6E6rQjDy5-72" value="" style="rounded=0;whiteSpace=wrap;html=1;fillColor=#99FFFF;" vertex="1" parent="1">
          <mxGeometry x="600" y="120" width="30" height="30" as="geometry" />
        </mxCell>
        <mxCell id="EK3I1rne3cS6E6rQjDy5-73" value="" style="rounded=0;whiteSpace=wrap;html=1;fillColor=#66FFFF;" vertex="1" parent="1">
          <mxGeometry x="600" y="210" width="30" height="30" as="geometry" />
        </mxCell>
        <mxCell id="EK3I1rne3cS6E6rQjDy5-74" value="" style="rounded=0;whiteSpace=wrap;html=1;fillColor=#33FFFF;" vertex="1" parent="1">
          <mxGeometry x="600" y="150" width="30" height="30" as="geometry" />
        </mxCell>
        <mxCell id="EK3I1rne3cS6E6rQjDy5-75" value="" style="rounded=0;whiteSpace=wrap;html=1;fillColor=#00CCCC;" vertex="1" parent="1">
          <mxGeometry x="600" y="240" width="30" height="30" as="geometry" />
        </mxCell>
        <mxCell id="EK3I1rne3cS6E6rQjDy5-76" value="" style="shape=flexArrow;endArrow=classic;html=1;rounded=0;fillColor=#dae8fc;strokeColor=#6c8ebf;" edge="1" parent="1">
          <mxGeometry width="50" height="50" relative="1" as="geometry">
            <mxPoint x="370" y="200" as="sourcePoint" />
            <mxPoint x="470" y="200" as="targetPoint" />
          </mxGeometry>
        </mxCell>
        <mxCell id="EK3I1rne3cS6E6rQjDy5-77" value="0" style="text;html=1;strokeColor=none;fillColor=none;align=center;verticalAlign=middle;whiteSpace=wrap;rounded=0;" vertex="1" parent="1">
          <mxGeometry x="480" y="270" width="30" height="30" as="geometry" />
        </mxCell>
        <mxCell id="EK3I1rne3cS6E6rQjDy5-78" value="1" style="text;html=1;strokeColor=none;fillColor=none;align=center;verticalAlign=middle;whiteSpace=wrap;rounded=0;" vertex="1" parent="1">
          <mxGeometry x="510" y="270" width="30" height="30" as="geometry" />
        </mxCell>
        <mxCell id="EK3I1rne3cS6E6rQjDy5-79" value="2" style="text;html=1;strokeColor=none;fillColor=none;align=center;verticalAlign=middle;whiteSpace=wrap;rounded=0;" vertex="1" parent="1">
          <mxGeometry x="540" y="270" width="30" height="30" as="geometry" />
        </mxCell>
        <mxCell id="EK3I1rne3cS6E6rQjDy5-80" value="3" style="text;html=1;strokeColor=none;fillColor=none;align=center;verticalAlign=middle;whiteSpace=wrap;rounded=0;" vertex="1" parent="1">
          <mxGeometry x="570" y="270" width="30" height="30" as="geometry" />
        </mxCell>
        <mxCell id="EK3I1rne3cS6E6rQjDy5-81" value="4" style="text;html=1;strokeColor=none;fillColor=none;align=center;verticalAlign=middle;whiteSpace=wrap;rounded=0;" vertex="1" parent="1">
          <mxGeometry x="600" y="270" width="30" height="30" as="geometry" />
        </mxCell>
        <mxCell id="EK3I1rne3cS6E6rQjDy5-82" value="x" style="text;html=1;strokeColor=none;fillColor=none;align=center;verticalAlign=middle;whiteSpace=wrap;rounded=0;" vertex="1" parent="1">
          <mxGeometry x="525" y="300" width="60" height="30" as="geometry" />
        </mxCell>
        <mxCell id="EK3I1rne3cS6E6rQjDy5-83" value="" style="shape=curlyBracket;whiteSpace=wrap;html=1;rounded=1;flipH=1;labelPosition=right;verticalLabelPosition=middle;align=left;verticalAlign=middle;rotation=90;" vertex="1" parent="1">
          <mxGeometry x="545" y="225" width="20" height="150" as="geometry" />
        </mxCell>
        <mxCell id="EK3I1rne3cS6E6rQjDy5-84" value="" style="shape=curlyBracket;whiteSpace=wrap;html=1;rounded=1;labelPosition=left;verticalLabelPosition=middle;align=right;verticalAlign=middle;rotation=-180;" vertex="1" parent="1">
          <mxGeometry x="650" y="120" width="20" height="150" as="geometry" />
        </mxCell>
        <mxCell id="EK3I1rne3cS6E6rQjDy5-85" value="0" style="text;html=1;strokeColor=none;fillColor=none;align=center;verticalAlign=middle;whiteSpace=wrap;rounded=0;" vertex="1" parent="1">
          <mxGeometry x="630" y="240" width="30" height="30" as="geometry" />
        </mxCell>
        <mxCell id="EK3I1rne3cS6E6rQjDy5-86" value="1" style="text;html=1;strokeColor=none;fillColor=none;align=center;verticalAlign=middle;whiteSpace=wrap;rounded=0;" vertex="1" parent="1">
          <mxGeometry x="630" y="210" width="30" height="30" as="geometry" />
        </mxCell>
        <mxCell id="EK3I1rne3cS6E6rQjDy5-87" value="2" style="text;html=1;strokeColor=none;fillColor=none;align=center;verticalAlign=middle;whiteSpace=wrap;rounded=0;" vertex="1" parent="1">
          <mxGeometry x="630" y="180" width="30" height="30" as="geometry" />
        </mxCell>
        <mxCell id="EK3I1rne3cS6E6rQjDy5-88" value="3" style="text;html=1;strokeColor=none;fillColor=none;align=center;verticalAlign=middle;whiteSpace=wrap;rounded=0;" vertex="1" parent="1">
          <mxGeometry x="630" y="150" width="30" height="30" as="geometry" />
        </mxCell>
        <mxCell id="EK3I1rne3cS6E6rQjDy5-89" value="4" style="text;html=1;strokeColor=none;fillColor=none;align=center;verticalAlign=middle;whiteSpace=wrap;rounded=0;" vertex="1" parent="1">
          <mxGeometry x="630" y="120" width="30" height="30" as="geometry" />
        </mxCell>
        <mxCell id="EK3I1rne3cS6E6rQjDy5-90" value="y" style="text;html=1;strokeColor=none;fillColor=none;align=center;verticalAlign=middle;whiteSpace=wrap;rounded=0;" vertex="1" parent="1">
          <mxGeometry x="650" y="180" width="60" height="30" as="geometry" />
        </mxCell>
      </root>
    </mxGraphModel>
  </diagram>
</mxfile>
